<?xml version="1.0" encoding="utf-8"?>
<!-- Generator: Adobe Illustrator 27.0.0, SVG Export Plug-In . SVG Version: 6.00 Build 0)  -->
<svg version="1.1" id="Layer_2_00000062176422874564643320000006792137184232360067_"
	 xmlns="http://www.w3.org/2000/svg" xmlns:xlink="http://www.w3.org/1999/xlink" x="0px" y="0px" viewBox="0 0 827.5 841"
	 style="enable-background:new 0 0 827.5 841;" xml:space="preserve">
<style type="text/css">
	.st0{fill:none;stroke:#D8D8D8;stroke-linecap:round;stroke-linejoin:round;}
</style>
<g id="Layer_1-2">
	<g>
		<line class="st0" x1="827" y1="460.8" x2="621.5" y2="450.9"/>
		<line class="st0" x1="658" y1="695.8" x2="550.8" y2="572"/>
		<line class="st0" x1="378.8" y1="686" x2="386" y2="619.5"/>
		<line class="st0" x1="362.1" y1="840.5" x2="375.7" y2="715.4"/>
		<line class="st0" x1="222.3" y1="789.8" x2="317.5" y2="613.9"/>
		<line class="st0" x1="119.4" y1="671.8" x2="242.3" y2="567.2"/>
		<line class="st0" x1="19.4" y1="568.8" x2="160.6" y2="522"/>
		<line class="st0" x1="0.5" y1="466.5" x2="189.8" y2="448.7"/>
		<line class="st0" x1="193.3" y1="371.1" x2="16.8" y2="332"/>
		<line class="st0" x1="44.7" y1="201.7" x2="215.2" y2="306.2"/>
		<line class="st0" x1="306" y1="0.5" x2="355.2" y2="216.9"/>
		<line class="st0" x1="467.2" y1="97.1" x2="442.5" y2="217.6"/>
		<line class="st0" x1="579.4" y1="94.4" x2="512" y2="234.1"/>
		<line class="st0" x1="724.3" y1="169" x2="577.6" y2="291"/>
		<line class="st0" x1="730.5" y1="326.4" x2="615.1" y2="364.7"/>
		<line class="st0" x1="774.2" y1="311.9" x2="746.7" y2="321"/>
		<line class="st0" x1="769.7" y1="594.4" x2="623" y2="524.9"/>
		<line class="st0" x1="527.9" y1="815.7" x2="473" y2="626.9"/>
		<line class="st0" x1="197.8" y1="137.1" x2="268.8" y2="244.5"/>
	</g>
</g>
</svg>
